<?xml version="1.0" encoding="utf-8"?>
<!-- Generator: Adobe Illustrator 16.0.0, SVG Export Plug-In . SVG Version: 6.00 Build 0)  -->
<!DOCTYPE svg PUBLIC "-//W3C//DTD SVG 1.1//EN" "http://www.w3.org/Graphics/SVG/1.1/DTD/svg11.dtd">
<svg version="1.1" xmlns="http://www.w3.org/2000/svg" xmlns:xlink="http://www.w3.org/1999/xlink" x="0px" y="0px"
	 width="121.09px" height="90px" viewBox="51.292 38.123 121.09 90" enable-background="new 51.292 38.123 121.09 90"
	 xml:space="preserve">
<g id="Layer_2_1_" display="none">
	<rect x="51.292" y="38.123" display="inline" fill="#111D1F" width="121.09" height="90"/>
</g>
<g id="Layer_4">
</g>
<g id="Layer_1">
	<g id="Layer_2" display="none">
		<polygon display="inline" fill="#FFFFFF" points="111.839,0 223.676,83.123 112.176,166.246 0,83.124 		"/>
	</g>
	<g id="Layer_1_1_">
		<g>
			<path fill="#FFFFFF" d="M99.61,82.609c-0.041-0.891-0.245-1.23-0.776-1.23c-1.451,0-2.718,3.88-2.718,5.959
				c0,1.399,0.266,1.718,1.042,1.718c1.001,0,2.043-1.908,2.37-4.41c-0.43-0.105-0.552-0.466-0.552-0.892
				C98.977,83.16,99.242,82.778,99.61,82.609z"/>
			<path fill="#FFFFFF" d="M135.852,82.076c-1.64,0-2.701,3.568-2.701,5.433c0,1.526,0.617,1.546,0.964,1.546
				c0.561,0,1.37-0.595,1.603-1.744l0.927-4.481C136.644,82.592,136.47,82.076,135.852,82.076z"/>
			<path fill="#FFFFFF" d="M162.254,80.881l-50.598-37.187c0,0-47.779,34.575-50.856,37.299c-3.077,2.726,0,4.599,0,4.599
				l50.856,36.959c0,0,48.748-34.736,50.514-36.003C166.785,83.237,162.254,80.881,162.254,80.881z M117.689,76.794
				c0.221-0.189,0.487-0.3,0.777-0.3c0.773,0,1.407,0.79,1.407,1.756c0,0.965-0.634,1.733-1.407,1.733
				c-0.289,0-0.557-0.107-0.777-0.292c-0.371-0.31-0.611-0.837-0.611-1.44C117.079,77.645,117.319,77.11,117.689,76.794z
				 M90.615,90.312c-0.891,0.556-1.962,0.836-3.063,0.836c-2.157,0-4.012-1.04-4.012-3.58c0-2.249,1.458-3.414,2.782-3.414
				c0.663,0,1.608,0.29,1.665,1.373c-1.022,0-2.214,0.521-2.214,1.957c0,1.041,0.605,1.998,1.816,1.998
				c1.269,0,2.195-1.021,2.195-2.77c0-3.56-3.879-4.83-3.879-7.89c0-2.165,1.93-3.727,4.371-3.727c0.099,0,0.214,0.004,0.339,0.011
				c1.003,0.062,2.707,0.45,2.707,2.487c0,1.208-0.605,2.103-1.551,2.103c-0.34,0-0.624-0.125-0.87-0.437
				c0.512-0.333,0.851-1.104,0.851-1.791c0-0.663-0.303-1.267-1.136-1.373c-0.084-0.011-0.167-0.022-0.263-0.022
				c-1.041,0-1.741,0.646-1.741,1.895c0,1.471,0.983,2.332,2.004,3.327c1.104,1.077,2.252,2.311,2.252,4.647
				C92.867,88.038,91.943,89.484,90.615,90.312z M106.427,88.931l0.171,1.302c-0.75,0.839-1.707,0.916-2.381,0.916
				c-1.168,0-2.113-0.748-2.113-2.491c0-0.395,0.059-0.852,0.159-1.348l0.596-2.934c-0.513,0.215-1.074,0.382-1.66,0.482
				c-0.316,3.84-2.29,6.249-4.718,6.249c-0.155,0-0.304-0.01-0.451-0.022c-1.596-0.145-2.707-1.091-2.707-3.258
				c0-1.748,0.726-4.881,2.707-6.437c0.725-0.569,1.612-0.933,2.701-0.933c1.698,0,2.527,1.141,2.527,3.321
				c0.079,0.042,0.158,0.042,0.217,0.042c0.465,0,1.027-0.165,1.58-0.406l1.322-6.506l2.921-0.416l-2.27,11.209
				c-0.059,0.271-0.079,0.479-0.079,0.665C104.947,88.948,105.642,89.422,106.427,88.931z M112.275,89.999
				c-0.712,0.708-1.579,1.149-2.616,1.149c-1.783,0-2.542-1.565-2.329-2.838l1.469-7.903h2.69l-1.345,7.217
				c-0.056,0.298-0.094,0.574-0.094,0.764c0,0.425,0.188,0.701,0.636,0.701c0.584,0,1.124-0.487,1.589-1.223
				c0.992-1.568,1.643-4.278,1.643-5.868c-0.057,0.148-0.448,0.212-0.598,0.212c-0.449,0-0.673-0.616-0.673-1.082
				c0-0.659,0.372-1.147,1.158-1.147c0.227,0,0.413,0.059,0.566,0.162c0.454,0.302,0.61,0.988,0.61,1.685
				c0,0.271-0.011,0.562-0.031,0.861C114.792,85.116,113.971,88.315,112.275,89.999z M139.454,89.135
				c0.175,0,0.293-0.021,0.429-0.082c-0.526,1.453-0.897,2.097-1.95,2.097c-1.055,0-1.757-0.728-1.913-1.93
				c-0.586,0.955-1.522,1.93-2.908,1.93c-1.03,0-2.021-0.529-2.416-1.921c-1.074,1.646-2.396,1.921-3.204,1.921
				c-1.019,0-1.845-0.567-2.042-1.863c-1.068,1.599-2.369,1.863-3.168,1.863c-1.019,0-1.844-0.567-2.043-1.863
				c-0.823,1.233-1.784,1.673-2.548,1.81c-0.227,0.039-0.437,0.055-0.619,0.055c-1.172,0-2.088-0.747-2.088-2.491
				c0-0.395,0.058-0.851,0.155-1.348l0.92-4.62l0.407-2.045h1.225h1.587l-0.407,2.045l-0.999,5.013
				c-0.058,0.271-0.078,0.479-0.078,0.666c0,0.58,0.254,0.768,0.801,0.768c0.761,0,1.462-0.788,1.755-1.825
				c0.001-0.001,0.001-0.001,0.001-0.001l0.928-4.619l1.16-5.781l0.146-0.021l2.744-0.395l-2.244,11.209
				c-0.058,0.27-0.079,0.478-0.079,0.665c0,0.58,0.255,0.768,0.801,0.768c0.761,0,1.463-0.788,1.756-1.825v-0.001l2.089-10.4
				l2.889-0.416l-2.244,11.209c-0.059,0.27-0.079,0.478-0.079,0.665c0,0.58,0.254,0.768,0.8,0.768c0.597,0,1.151-0.485,1.508-1.191
				c-0.001-0.047-0.006-0.09-0.006-0.138c0-2.803,1.62-7.265,5.018-7.265c1.111,0,1.581,0.457,1.581,1.059v0.146l0.213-1.101h2.811
				l-1.405,7.058c-0.058,0.27-0.078,0.479-0.078,0.666C138.653,88.948,138.907,89.135,139.454,89.135z"/>
		</g>
	</g>
	<g>
		<path fill="#FFFFFF" d="M111.838,40.615l57.192,42.508l-57.192,42.508L54.645,83.123L111.838,40.615 M111.838,38.123l-60.545,45
			l60.545,45l60.545-45L111.838,38.123L111.838,38.123z"/>
	</g>
</g>
</svg>
